<svg xmlns="http://www.w3.org/2000/svg" xmlns:xlink="http://www.w3.org/1999/xlink" viewBox="0 0 366.19 410.46"><defs><clipPath id="clip-path" transform="translate(0 -2.55)"><circle cx="207.16" cy="204.11" r="93.2" transform="translate(-59.7 88.51) rotate(-21.15)" style="fill:none"/></clipPath></defs><title>flynew</title><g id="Layer_2" data-name="Layer 2"><g id="OBJECTS"><path d="M68.78,16.61V3.37a.54.54,0,0,1,.31-.51,1.74,1.74,0,0,1,1.5,0,.54.54,0,0,1,.31.51V15.43h5.2a.52.52,0,0,1,.47.28,1.37,1.37,0,0,1,0,1.32.52.52,0,0,1-.47.28H69.72a1.14,1.14,0,0,1-.66-.19A.59.59,0,0,1,68.78,16.61Z" transform="translate(0 -2.55)" style="fill:#97d1d1"/><path d="M79.94,13V7.15a4.31,4.31,0,0,1,1.22-3.38,5.48,5.48,0,0,1,6.53,0,4.28,4.28,0,0,1,1.23,3.38V13a4.28,4.28,0,0,1-1.23,3.38,5.48,5.48,0,0,1-6.53,0A4.31,4.31,0,0,1,79.94,13Zm2.12,0c0,1.72.79,2.58,2.36,2.58a2.32,2.32,0,0,0,1.76-.64A2.71,2.71,0,0,0,86.8,13V7.15a2.71,2.71,0,0,0-.62-1.94,2.32,2.32,0,0,0-1.76-.64c-1.57,0-2.36.86-2.36,2.58Z" transform="translate(0 -2.55)" style="fill:#97d1d1"/><path d="M93.26,13V7.15a4.31,4.31,0,0,1,1.22-3.38,5.48,5.48,0,0,1,6.53,0,4.28,4.28,0,0,1,1.23,3.38V13A4.28,4.28,0,0,1,101,16.35a5.48,5.48,0,0,1-6.53,0A4.31,4.31,0,0,1,93.26,13Zm2.12,0c0,1.72.79,2.58,2.36,2.58a2.32,2.32,0,0,0,1.76-.64,2.71,2.71,0,0,0,.62-1.94V7.15a2.71,2.71,0,0,0-.62-1.94,2.32,2.32,0,0,0-1.76-.64c-1.57,0-2.36.86-2.36,2.58Z" transform="translate(0 -2.55)" style="fill:#97d1d1"/><path d="M106.72,16.61V3.37a.54.54,0,0,1,.31-.51,1.74,1.74,0,0,1,1.5,0,.54.54,0,0,1,.31.51V9.45L113.72,3a.67.67,0,0,1,.6-.3,1.26,1.26,0,0,1,.82.35,1,1,0,0,1,.4.75.6.6,0,0,1-.16.42L111.54,9,116.1,16a.68.68,0,0,1,.12.38.94.94,0,0,1-.39.71,1.28,1.28,0,0,1-.85.33.84.84,0,0,1-.76-.4l-4.08-6.18-1.3,1.64v4.18a.58.58,0,0,1-.31.51,1.56,1.56,0,0,1-1.49,0A.59.59,0,0,1,106.72,16.61Z" transform="translate(0 -2.55)" style="fill:#97d1d1"/><path d="M119.54,16.61V3.37a.54.54,0,0,1,.31-.51,1.74,1.74,0,0,1,1.5,0,.54.54,0,0,1,.31.51V16.61a.58.58,0,0,1-.31.51,1.56,1.56,0,0,1-1.49,0A.59.59,0,0,1,119.54,16.61Z" transform="translate(0 -2.55)" style="fill:#97d1d1"/><path d="M126.3,16.61V3.39c0-.47.35-.7,1.06-.7a1.48,1.48,0,0,1,.9.25,2.7,2.7,0,0,1,.7,1l4.44,8.66V3.37a.54.54,0,0,1,.31-.51,1.74,1.74,0,0,1,1.5,0,.54.54,0,0,1,.31.51V16.61a.58.58,0,0,1-.31.51,1.39,1.39,0,0,1-.75.19,1.35,1.35,0,0,1-1.26-.78l-4.78-9.1v9.18a.58.58,0,0,1-.31.51,1.56,1.56,0,0,1-1.49,0A.59.59,0,0,1,126.3,16.61Z" transform="translate(0 -2.55)" style="fill:#97d1d1"/><path d="M140,13V7.15a4.31,4.31,0,0,1,1.22-3.38,4.64,4.64,0,0,1,3.2-1.08,5.14,5.14,0,0,1,3.29,1A3.25,3.25,0,0,1,149,6.39a1,1,0,0,1-.25.8,1.21,1.21,0,0,1-.81.22c-.69,0-1.05-.23-1.06-.7a2.13,2.13,0,0,0-2.38-2.14c-1.57,0-2.36.86-2.36,2.58V13c0,1.72.79,2.58,2.36,2.58a2.32,2.32,0,0,0,1.76-.64,2.73,2.73,0,0,0,.62-1.95V11.31h-2a.58.58,0,0,1-.5-.25,1,1,0,0,1,0-1.17.56.56,0,0,1,.5-.26h3.44a.66.66,0,0,1,.51.21.72.72,0,0,1,.19.51V13a4.28,4.28,0,0,1-1.23,3.38,5.48,5.48,0,0,1-6.53,0A4.31,4.31,0,0,1,140,13Z" transform="translate(0 -2.55)" style="fill:#97d1d1"/><path d="M159.28,16.61V3.39a.59.59,0,0,1,.28-.51,1.14,1.14,0,0,1,.66-.19h7a.56.56,0,0,1,.51.27,1.23,1.23,0,0,1,.17.65,1.23,1.23,0,0,1-.18.68.56.56,0,0,1-.5.28H161.4V9.15h3.1a.58.58,0,0,1,.5.25,1.08,1.08,0,0,1,0,1.18.56.56,0,0,1-.51.25h-3.1v5.78a.56.56,0,0,1-.31.52,1.63,1.63,0,0,1-1.49,0A.57.57,0,0,1,159.28,16.61Z" transform="translate(0 -2.55)" style="fill:#97d1d1"/><path d="M171,13V7.15a4.31,4.31,0,0,1,1.22-3.38,5.48,5.48,0,0,1,6.53,0A4.28,4.28,0,0,1,180,7.15V13a4.28,4.28,0,0,1-1.23,3.38,5.48,5.48,0,0,1-6.53,0A4.31,4.31,0,0,1,171,13Zm2.12,0c0,1.72.79,2.58,2.36,2.58a2.32,2.32,0,0,0,1.76-.64,2.71,2.71,0,0,0,.62-1.94V7.15a2.71,2.71,0,0,0-.62-1.94,2.32,2.32,0,0,0-1.76-.64c-1.57,0-2.36.86-2.36,2.58Z" transform="translate(0 -2.55)" style="fill:#97d1d1"/><path d="M184.44,16.61V3.37a.66.66,0,0,1,.2-.48.69.69,0,0,1,.5-.2h3.8q4.6,0,4.6,4.08a4.19,4.19,0,0,1-.76,2.66,3.63,3.63,0,0,1-2.06,1.28l2.8,5.28a.61.61,0,0,1,.08.3,1,1,0,0,1-.41.74,1.31,1.31,0,0,1-.87.34,1,1,0,0,1-.84-.62L188.56,11h-2v5.6a.58.58,0,0,1-.31.51,1.39,1.39,0,0,1-.75.19,1.35,1.35,0,0,1-.73-.19A.58.58,0,0,1,184.44,16.61Zm2.1-7.28h2.4c1.65,0,2.48-.79,2.48-2.38s-.83-2.38-2.48-2.38h-2.4Z" transform="translate(0 -2.55)" style="fill:#97d1d1"/><path d="M202.88,15.11a1.26,1.26,0,0,1,.28-.76.81.81,0,0,1,.64-.38,1,1,0,0,1,.53.26c.2.17.41.35.61.55a2.79,2.79,0,0,0,.91.55,3.52,3.52,0,0,0,1.37.26,2.89,2.89,0,0,0,1.83-.54,1.91,1.91,0,0,0,.69-1.59,2.12,2.12,0,0,0-.67-1.61,5.16,5.16,0,0,0-1.62-1c-.64-.25-1.27-.53-1.91-.82a4.34,4.34,0,0,1-1.63-1.33,3.52,3.52,0,0,1-.67-2.21,3.77,3.77,0,0,1,.41-1.83,2.93,2.93,0,0,1,1.11-1.2,5.52,5.52,0,0,1,1.47-.61,6.56,6.56,0,0,1,1.63-.19A8.9,8.9,0,0,1,209,2.7a8.06,8.06,0,0,1,1.17.23,2.67,2.67,0,0,1,1,.45.86.86,0,0,1,.38.67,1.41,1.41,0,0,1-.24.76.71.71,0,0,1-.64.38,1.16,1.16,0,0,1-.54-.19,6.61,6.61,0,0,0-.91-.38,4.06,4.06,0,0,0-1.31-.19,3.25,3.25,0,0,0-1.82.45,1.53,1.53,0,0,0-.68,1.38,1.54,1.54,0,0,0,.36,1,2.83,2.83,0,0,0,.93.72c.38.19.8.37,1.27.55a11.53,11.53,0,0,1,1.39.64,6.87,6.87,0,0,1,1.26.83,3.4,3.4,0,0,1,.93,1.3,4.72,4.72,0,0,1,.36,1.91,4,4,0,0,1-1.25,3.15,4.9,4.9,0,0,1-3.31,1.08,6,6,0,0,1-3.13-.77Q202.88,15.94,202.88,15.11Z" transform="translate(0 -2.55)" style="fill:#97d1d1"/><path d="M215.72,13V7.15a4.31,4.31,0,0,1,1.22-3.38,5.48,5.48,0,0,1,6.53,0,4.28,4.28,0,0,1,1.23,3.38V13a4.28,4.28,0,0,1-1.23,3.38,5.48,5.48,0,0,1-6.53,0A4.31,4.31,0,0,1,215.72,13Zm2.12,0c0,1.72.79,2.58,2.36,2.58a2.32,2.32,0,0,0,1.76-.64,2.71,2.71,0,0,0,.62-1.94V7.15A2.71,2.71,0,0,0,222,5.21a2.32,2.32,0,0,0-1.76-.64c-1.57,0-2.36.86-2.36,2.58Z" transform="translate(0 -2.55)" style="fill:#97d1d1"/><path d="M229.18,16.61V3.75a1,1,0,0,1,.3-.8,1.13,1.13,0,0,1,.76-.26,1.66,1.66,0,0,1,.95.25,2.6,2.6,0,0,1,.73,1l2.8,5.3,2.84-5.3a2.59,2.59,0,0,1,.72-1,1.58,1.58,0,0,1,.94-.25A1.15,1.15,0,0,1,240,3a1,1,0,0,1,.3.8V16.61a.6.6,0,0,1-.31.51,1.56,1.56,0,0,1-1.49,0,.57.57,0,0,1-.32-.51V7l-2.68,5a.89.89,0,0,1-.78.48A.77.77,0,0,1,234,12L231.3,6.89v9.72a.6.6,0,0,1-.31.51,1.56,1.56,0,0,1-1.49,0A.57.57,0,0,1,229.18,16.61Z" transform="translate(0 -2.55)" style="fill:#97d1d1"/><path d="M244.92,16.61V3.39a.59.59,0,0,1,.28-.51,1.12,1.12,0,0,1,.66-.19H253a.58.58,0,0,1,.52.28,1.17,1.17,0,0,1,.18.64,1.24,1.24,0,0,1-.19.68.59.59,0,0,1-.51.28H247V9.15h3.08a.61.61,0,0,1,.51.25,1,1,0,0,1,.19.61,1,1,0,0,1-.18.57.6.6,0,0,1-.52.25H247v4.6H253a.59.59,0,0,1,.51.28,1.24,1.24,0,0,1,.19.68,1.17,1.17,0,0,1-.18.64.58.58,0,0,1-.52.28h-7.12a1.12,1.12,0,0,1-.66-.19A.59.59,0,0,1,244.92,16.61Z" transform="translate(0 -2.55)" style="fill:#97d1d1"/><path d="M256.34,3.66a1.28,1.28,0,0,1,.18-.68.58.58,0,0,1,.52-.29h8.3a.58.58,0,0,1,.52.28,1.22,1.22,0,0,1,.18.67,1.29,1.29,0,0,1-.19.72.6.6,0,0,1-.51.29h-3.08v12a.59.59,0,0,1-.32.51,1.38,1.38,0,0,1-.74.19,1.35,1.35,0,0,1-.75-.19.58.58,0,0,1-.31-.51v-12H257a.57.57,0,0,1-.51-.29A1.25,1.25,0,0,1,256.34,3.66Z" transform="translate(0 -2.55)" style="fill:#97d1d1"/><path d="M269.64,16.61V3.37a.54.54,0,0,1,.31-.51,1.54,1.54,0,0,1,.75-.17,1.6,1.6,0,0,1,.75.17.55.55,0,0,1,.31.51V8.89h5V3.37a.54.54,0,0,1,.31-.51,1.54,1.54,0,0,1,.75-.17,1.6,1.6,0,0,1,.75.17.55.55,0,0,1,.31.51V16.61a.6.6,0,0,1-.31.51,1.56,1.56,0,0,1-1.49,0,.57.57,0,0,1-.32-.51v-6h-5v6a.6.6,0,0,1-.31.51,1.56,1.56,0,0,1-1.49,0A.57.57,0,0,1,269.64,16.61Z" transform="translate(0 -2.55)" style="fill:#97d1d1"/><path d="M283.5,16.61V3.37a.54.54,0,0,1,.31-.51,1.54,1.54,0,0,1,.75-.17,1.6,1.6,0,0,1,.75.17.55.55,0,0,1,.31.51V16.61a.6.6,0,0,1-.31.51,1.56,1.56,0,0,1-1.49,0A.57.57,0,0,1,283.5,16.61Z" transform="translate(0 -2.55)" style="fill:#97d1d1"/><path d="M290.26,16.61V3.39c0-.47.35-.7,1.06-.7a1.48,1.48,0,0,1,.9.25,2.83,2.83,0,0,1,.7,1l4.44,8.66V3.37a.54.54,0,0,1,.31-.51,1.54,1.54,0,0,1,.75-.17,1.6,1.6,0,0,1,.75.17.55.55,0,0,1,.31.51V16.61a.6.6,0,0,1-.31.51,1.39,1.39,0,0,1-.75.19,1.35,1.35,0,0,1-1.26-.78l-4.78-9.1v9.18a.6.6,0,0,1-.31.51,1.56,1.56,0,0,1-1.49,0A.57.57,0,0,1,290.26,16.61Z" transform="translate(0 -2.55)" style="fill:#97d1d1"/><path d="M304,13V7.15a4.27,4.27,0,0,1,1.22-3.38,4.64,4.64,0,0,1,3.2-1.08,5.16,5.16,0,0,1,3.29,1A3.28,3.28,0,0,1,313,6.39a1.06,1.06,0,0,1-.25.8,1.21,1.21,0,0,1-.81.22c-.7,0-1-.23-1.06-.7a2.13,2.13,0,0,0-2.38-2.14c-1.58,0-2.36.86-2.36,2.58V13c0,1.72.78,2.58,2.36,2.58a2.33,2.33,0,0,0,1.76-.64,2.73,2.73,0,0,0,.62-1.95V11.31h-2a.57.57,0,0,1-.5-.25,1,1,0,0,1,0-1.17.55.55,0,0,1,.5-.26h3.44a.66.66,0,0,1,.51.21.76.76,0,0,1,.19.51V13a4.28,4.28,0,0,1-1.23,3.38,5.48,5.48,0,0,1-6.53,0A4.27,4.27,0,0,1,304,13Z" transform="translate(0 -2.55)" style="fill:#97d1d1"/><path d="M322.45,4.58c0-.47.32-.92,1-1.36a4.27,4.27,0,0,1,2.48-.67,4.31,4.31,0,0,1,3,1A3.19,3.19,0,0,1,330,6a3.94,3.94,0,0,1-.18,1.19,3.52,3.52,0,0,1-.53,1c-.22.31-.43.57-.61.78a8.68,8.68,0,0,1-.68.68l-.49.45a2.23,2.23,0,0,0-.73,1.1,7.19,7.19,0,0,0-.14,1.7c0,.41-.31.62-.93.62a1,1,0,0,1-.66-.2,1,1,0,0,1-.19-.72A4.15,4.15,0,0,1,326,9.34c.09-.08.27-.23.56-.44a4.91,4.91,0,0,0,.62-.53,6.38,6.38,0,0,0,.48-.56,2.45,2.45,0,0,0,.41-.76,3.17,3.17,0,0,0,.13-.88,1.85,1.85,0,0,0-.63-1.49,2.58,2.58,0,0,0-1.72-.53,2.73,2.73,0,0,0-1.09.19,1.54,1.54,0,0,0-.63.44,2.83,2.83,0,0,1-.4.44.7.7,0,0,1-.46.2.84.84,0,0,1-.56-.23A.74.74,0,0,1,322.45,4.58Zm2.09,11.75a1,1,0,0,1,.34-.78,1.17,1.17,0,0,1,.84-.32,1.32,1.32,0,0,1,.88.32,1,1,0,0,1,.38.78,1,1,0,0,1-.38.77,1.28,1.28,0,0,1-.88.33,1.14,1.14,0,0,1-.84-.33A1,1,0,0,1,324.54,16.33Z" transform="translate(0 -2.55)" style="fill:#97d1d1"/><path d="M289.05,387.49c0,5.88-40.36,10.64-90.14,10.64s-90.14-4.76-90.14-10.64,40.35-10.64,90.14-10.64S289.05,381.61,289.05,387.49Z" transform="translate(0 -2.55)" style="fill:#d3eae9"/><path d="M208.08,353.73C136.3,358.33,19.7,315.84,63.16,247.39c33.65-53,6.2-90.64-11.22-106.64-30.66-28.17,1.35-99.89,146.32-90.64,132.37,8.44,181.47,96.7,164.8,176C348.1,297.31,290.47,348.45,208.08,353.73Z" transform="translate(0 -2.55)" style="fill:#a1dfe2"/><rect x="103.74" y="284.07" width="38.02" height="12.37" transform="translate(-169.29 169.26) rotate(-45)" style="fill:#6a949e"/><rect x="-10.33" y="337.13" width="142.6" height="29.84" transform="translate(-231.08 143.67) rotate(-45)" style="fill:#41a5b5"/><rect x="102.89" y="290.23" width="9.94" height="29.84" transform="translate(-184.18 163.1) rotate(-45)" style="fill:#a0efd7"/><g style="clip-path:url(#clip-path)"><path d="M177.59,168.87c-24.54-38.1-2.16-53.46,15.4-41.56,14.66,9.95,29.27-3.94,41.42,7.79,9.63,9.3,7.7,17.46-1.16,40.76C223.67,201,177.59,168.87,177.59,168.87Z" transform="translate(0 -2.55)" style="fill:#6a949e"/><polygon points="191.02 208.29 226 208.29 234.02 153.34 181.28 153.34 191.02 208.29" style="fill:#f98"/><path d="M232.11,169s6.69-2.73,6.69,2.74c0,6.91-8.79,11.65-8.79,11.65Z" transform="translate(0 -2.55)" style="fill:#f98"/><path d="M183.62,169.08s-7.16-2.84-7.16,2.63c0,6.91,9.7,11.65,9.7,11.65Z" transform="translate(0 -2.55)" style="fill:#f98"/><path d="M205.28,188.34a84.91,84.91,0,0,0,2.25-13.93,83.36,83.36,0,0,0-4,13.53c-.44,2.07-.85,4.05-1.18,5.59l2.44.19,1.45.08,2.59.08a35.17,35.17,0,0,0,3.73-.11,33.21,33.21,0,0,0-3.63-.86l-2.55-.45-1.43-.21c-.69-.1-.6-.11-.64-.13s0,0,.07-.14c.09-.37.18-.75.29-1.14C204.87,190.05,205.07,189.2,205.28,188.34Z" transform="translate(0 -2.55)" style="fill:#db6b63"/><rect x="199.58" y="205.22" width="17.11" height="16.66" style="fill:#f98"/><polyline points="272.37 338.73 245.21 261.81 254.85 338.73 163.68 338.73 170.16 263.39 140.62 338.73 127.36 338.73 155.4 216.84 259.18 216.84 286.96 338.73" style="fill:#2d7687"/><path d="M217,219.39l7.84,13.12-15.79-1.12s-1.56-9.26,3.37-12Z" transform="translate(0 -2.55)" style="fill:#399aaa"/><polygon points="205.95 228.12 192.21 231.72 198.89 216.84 205.95 216.84 205.95 228.12" style="fill:#399aaa"/><path d="M214.9,219.39s-6.09,27.63-14.13,0Z" transform="translate(0 -2.55)" style="fill:#a0efd7"/><path d="M209.07,231.39l9.07,75.12-11,11.18-11.63-11,10.42-76S208.47,227.32,209.07,231.39Z" transform="translate(0 -2.55)" style="fill:#a0efd7"/><polygon points="199.58 208.29 216.69 208.29 216.69 213.55 199.58 210.12 199.58 208.29" style="fill:#db6b63"/></g><path d="M207.16,90A114.12,114.12,0,1,0,321.28,204.11,114.12,114.12,0,0,0,207.16,90Zm0,207.32a93.2,93.2,0,1,1,93.2-93.2A93.2,93.2,0,0,1,207.16,297.31Z" transform="translate(0 -2.55)" style="fill:#41a5b5"/><g style="opacity:0.7000000000000001"><path d="M250.83,186.09c-7.78-13.93-7.16-29.09,1.37-33.85s21.76,2.65,29.54,16.58,7.16,29.08-1.38,33.85S258.61,200,250.83,186.09Z" transform="translate(0 -2.55)" style="fill:#e1fff5"/><path d="M234.43,147.18a8.86,8.86,0,1,1,12.73,1.75A9.09,9.09,0,0,1,234.43,147.18Z" transform="translate(0 -2.55)" style="fill:#e1fff5"/></g><path d="M64.69,188.08c5.45-26.71-23.86-30.13-26.5-14.58C34.72,193.93,60.11,210.5,64.69,188.08Z" transform="translate(0 -2.55)" style="fill:#a1dfe2"/><path d="M56.81,210.64c-10.85,3.09-4,14.7,2.16,12.7C67.07,220.72,65.91,208,56.81,210.64Z" transform="translate(0 -2.55)" style="fill:#a1dfe2"/></g></g></svg>