<svg xmlns="http://www.w3.org/2000/svg" xmlns:xlink="http://www.w3.org/1999/xlink" viewBox="0 0 645.5 417.42"><defs><linearGradient id="linear-gradient" x1="268.39" y1="202.7" x2="268.39" y2="95" gradientUnits="userSpaceOnUse"><stop offset="0" stop-color="#fff" stop-opacity="0.1"/><stop offset="1" stop-color="#009ee9"/></linearGradient><clipPath id="clip-path"><rect x="214.54" y="3.5" width="107.7" height="107.7" rx="14.56" style="fill:none"/></clipPath><linearGradient id="linear-gradient-2" x1="497.63" y1="244.82" x2="450.07" y2="121.44" gradientTransform="translate(627.91 -246.21) rotate(90)" xlink:href="#linear-gradient"/><linearGradient id="linear-gradient-3" x1="290.2" y1="362.48" x2="211.63" y2="288.82" gradientTransform="translate(-138.46 532.58) rotate(-90)" xlink:href="#linear-gradient"/></defs><title>upload_1</title><g id="Layer_2" data-name="Layer 2"><g id="OBJECT"><ellipse cx="325.83" cy="233.05" rx="206.27" ry="184.38" style="fill:#4ab3f4"/><rect x="32.66" y="213.96" width="76.17" height="76.17" rx="14.56" style="fill:#0a69de"/><path d="M569.94,330.82v35.45A10.93,10.93,0,0,1,559,377.2H523.56a10.93,10.93,0,0,1-10.94-10.93V330.82a10.93,10.93,0,0,1,10.94-10.93H559A10.93,10.93,0,0,1,569.94,330.82Z" style="fill:#1090f9"/><path d="M523.56,379.05a12.79,12.79,0,0,1-12.78-12.78V330.82a12.79,12.79,0,0,1,12.78-12.77H559a12.79,12.79,0,0,1,12.78,12.77v35.45A12.79,12.79,0,0,1,559,379.05Z" style="fill:none;stroke:#4ebdf4;stroke-miterlimit:10"/><rect x="229.08" y="234.33" width="193.5" height="85.63" style="fill:#fff"/><circle cx="422.58" cy="277.14" r="42.81" transform="translate(-53.12 106.6) rotate(-13.53)" style="fill:#fff"/><circle cx="229.08" cy="277.14" r="42.81" transform="translate(-128.87 243.16) rotate(-45)" style="fill:#fff"/><circle cx="388.34" cy="234.33" r="34.25" transform="translate(-42.97 94.02) rotate(-13.09)" style="fill:#fff"/><circle cx="255.91" cy="234.33" r="21.57" style="fill:#fff"/><circle cx="311.55" cy="210.36" r="64.22" transform="translate(-40.87 79.55) rotate(-13.66)" style="fill:#fff"/><path d="M229.08,326a48.81,48.81,0,0,1-.09-97.62,27.54,27.54,0,0,1,12.35-17.41c0-.19,0-.38,0-.56a70.22,70.22,0,0,1,138.72-15.42,40.27,40.27,0,0,1,48.14,33.71,48.81,48.81,0,0,1-5.6,97.3Z" style="fill:none;stroke:#6dcdfc;stroke-miterlimit:10"/><path d="M413.5,344.88H238.17a6.34,6.34,0,0,1-6.34-6.33h0a6.34,6.34,0,0,1,6.34-6.34H413.5a6.33,6.33,0,0,1,6.33,6.34h0A6.33,6.33,0,0,1,413.5,344.88Z" style="fill:#fff"/><path d="M385.5,344.88H238.17a6.34,6.34,0,0,1-6.34-6.33h0a6.34,6.34,0,0,1,6.34-6.34H385.5a6.33,6.33,0,0,1,6.33,6.34h0A6.33,6.33,0,0,1,385.5,344.88Z" style="fill:#08a0ff"/><rect x="303.45" y="253.75" width="44.76" height="66.2" style="fill:#08a0ff"/><path d="M323.7,217l-37.92,44.92a2.8,2.8,0,0,0,2.13,4.6h75.84a2.8,2.8,0,0,0,2.14-4.6L328,217A2.8,2.8,0,0,0,323.7,217Z" style="fill:#08a0ff"/><polygon points="322.24 202.7 214.54 95 322.24 95 322.24 202.7" style="fill:url(#linear-gradient)"/><g style="clip-path:url(#clip-path)"><rect x="214.54" y="3.5" width="107.7" height="107.7" rx="14.56" style="fill:#08a0ff"/><path d="M296.47,67.8H276.22A4.2,4.2,0,0,1,272,63.59h0a4.2,4.2,0,0,1,4.21-4.21h20.25a4.2,4.2,0,0,1,4.21,4.21h0A4.2,4.2,0,0,1,296.47,67.8Z" style="fill:#6ecfff"/><path d="M308.3,76.05H286.43a4.22,4.22,0,0,1-4.21-4.22h0a4.22,4.22,0,0,1,4.21-4.21H308.3a4.22,4.22,0,0,1,4.21,4.21h0A4.22,4.22,0,0,1,308.3,76.05Z" style="fill:#6ecfff"/><path d="M298,74.88l-61.61,68.18h138l-61.6-68.18A10,10,0,0,0,298,74.88Z" style="fill:#1090f9"/><path d="M233.31,56.54l-61.6,68.18h138l-61.6-68.18A10,10,0,0,0,233.31,56.54Z" style="fill:#2088ef"/><path d="M244.47,26.47H224.22A4.21,4.21,0,0,1,220,22.26h0a4.2,4.2,0,0,1,4.21-4.21h20.25a4.2,4.2,0,0,1,4.21,4.21h0A4.21,4.21,0,0,1,244.47,26.47Z" style="fill:#6ecfff"/><path d="M256.3,34.71H234.43a4.21,4.21,0,0,1-4.21-4.21h0a4.21,4.21,0,0,1,4.21-4.21H256.3a4.21,4.21,0,0,1,4.21,4.21h0A4.21,4.21,0,0,1,256.3,34.71Z" style="fill:#6ecfff"/><circle cx="285.34" cy="35.71" r="15.33" style="fill:#6ecfff"/></g><rect x="211.54" y="0.5" width="113.7" height="113.7" rx="17.56" style="fill:none;stroke:#6dcdfc;stroke-miterlimit:10"/><path d="M130.17,171.38a11.5,11.5,0,1,1,11.5-11.5A11.51,11.51,0,0,1,130.17,171.38Zm0-20a8.5,8.5,0,1,0,8.5,8.5A8.51,8.51,0,0,0,130.17,151.38Z" style="fill:#4ebdf4"/><path d="M89.17,127.55a5.67,5.67,0,1,1,5.66-5.67A5.68,5.68,0,0,1,89.17,127.55Zm0-9.86a4.19,4.19,0,1,0,4.18,4.19A4.2,4.2,0,0,0,89.17,117.69Z" style="fill:#4ebdf4"/><path d="M5.67,228.3a5.67,5.67,0,1,1,5.66-5.67A5.68,5.68,0,0,1,5.67,228.3Zm0-9.86a4.19,4.19,0,1,0,4.19,4.19A4.2,4.2,0,0,0,5.67,218.44Z" style="fill:#4ebdf4"/><path d="M536.83,118.05a6.34,6.34,0,1,1,6.34-6.34A6.35,6.35,0,0,1,536.83,118.05Zm0-11a4.68,4.68,0,1,0,4.68,4.68A4.69,4.69,0,0,0,536.83,107Z" style="fill:#4ebdf4"/><path d="M639.17,178.38a6.34,6.34,0,1,1,6.33-6.33A6.34,6.34,0,0,1,639.17,178.38Zm0-11a4.69,4.69,0,1,0,4.68,4.69A4.69,4.69,0,0,0,639.17,167.36Z" style="fill:#4ebdf4"/><path d="M351.17,89.88a11.5,11.5,0,1,1,11.5-11.5A11.51,11.51,0,0,1,351.17,89.88Zm0-20a8.5,8.5,0,1,0,8.5,8.5A8.51,8.51,0,0,0,351.17,69.88Z" style="fill:#4ebdf4"/><path d="M601,305.55a11.5,11.5,0,1,1,11.5-11.5A11.51,11.51,0,0,1,601,305.55Zm0-20a8.5,8.5,0,1,0,8.5,8.5A8.51,8.51,0,0,0,601,285.55Z" style="fill:#4ebdf4"/><path d="M444.33,406.21a8.83,8.83,0,1,1,8.84-8.83A8.84,8.84,0,0,1,444.33,406.21Zm0-15.36a6.53,6.53,0,1,0,6.53,6.53A6.54,6.54,0,0,0,444.33,390.85Z" style="fill:#4ebdf4"/><path d="M298.17,383.55a5.67,5.67,0,1,1,5.66-5.67A5.68,5.68,0,0,1,298.17,383.55Zm0-9.86a4.19,4.19,0,1,0,4.18,4.19A4.2,4.2,0,0,0,298.17,373.69Z" style="fill:#4ebdf4"/><path d="M181.2,145.61H171.13A2.42,2.42,0,0,1,169,142l5-8.73a2.43,2.43,0,0,1,4.19,0l5,8.73a2.38,2.38,0,0,1,0,2.42A2.41,2.41,0,0,1,181.2,145.61Zm-5-11.6a.45.45,0,0,0-.4.23l-5,8.72a.42.42,0,0,0,0,.45.42.42,0,0,0,.39.23H181.2a.44.44,0,0,0,.4-.23.46.46,0,0,0,0-.45l-5-8.72A.44.44,0,0,0,176.17,134Z" style="fill:#4ebdf4"/><path d="M421.54,137.94H411.46a2.42,2.42,0,0,1-2.09-3.63l5-8.72a2.38,2.38,0,0,1,2.09-1.21,2.41,2.41,0,0,1,2.1,1.21l5,8.72a2.42,2.42,0,0,1-2.09,3.63Zm-5-11.6a.43.43,0,0,0-.39.23l-5,8.72a.46.46,0,0,0,0,.46.45.45,0,0,0,.39.22h10.08a.45.45,0,0,0,.39-.22.46.46,0,0,0,0-.46l-5-8.72A.43.43,0,0,0,416.5,126.34Z" style="fill:#4ebdf4"/><path d="M616,308.38H626a2.42,2.42,0,0,1,2.09,3.63l-5,8.72a2.41,2.41,0,0,1-2.1,1.21,2.38,2.38,0,0,1-2.09-1.21l-5-8.72a2.42,2.42,0,0,1,2.09-3.63ZM621,320a.42.42,0,0,0,.39-.22l5-8.73a.44.44,0,0,0,0-.45.46.46,0,0,0-.39-.23H616a.46.46,0,0,0-.39.23.44.44,0,0,0,0,.45l5,8.73A.42.42,0,0,0,621,320Z" style="fill:#4ebdf4"/><path d="M140.88,412.27H125.12a3.79,3.79,0,0,1-3.28-5.68l7.88-13.65a3.79,3.79,0,0,1,6.56,0l7.88,13.65a3.79,3.79,0,0,1-3.28,5.68ZM133,394.12a.68.68,0,0,0-.61.36l-7.89,13.65a.72.72,0,0,0,.62,1.07h15.76a.72.72,0,0,0,.62-1.07l-7.88-13.65A.7.7,0,0,0,133,394.12Z" style="fill:#4ebdf4"/><polygon points="377.5 249.03 528.99 141.33 528.99 249.03 377.5 249.03" style="fill:url(#linear-gradient-2)"/><path d="M623.07,173.28v61.23a14.57,14.57,0,0,1-14.56,14.58H529.93a14.57,14.57,0,0,1-14.56-14.58V155.94a14.56,14.56,0,0,1,14.56-14.56h61.23l24.08,24.07Z" style="fill:#0a69de"/><path d="M623.07,173.28H604.62a13.46,13.46,0,0,1-13.46-13.45V141.38Z" style="fill:#ccecff"/><path d="M606.5,188.55H534.83a1.5,1.5,0,0,1,0-3H606.5a1.5,1.5,0,0,1,0,3Z" style="fill:#3fa9f5"/><path d="M606.5,203.38H534.83a1.5,1.5,0,0,1,0-3H606.5a1.5,1.5,0,0,1,0,3Z" style="fill:#3fa9f5"/><path d="M606.5,218.21H534.83a1.5,1.5,0,0,1,0-3H606.5a1.5,1.5,0,0,1,0,3Z" style="fill:#3fa9f5"/><polygon points="258.58 262.96 150.88 370.66 150.88 262.96 258.58 262.96" style="fill:url(#linear-gradient-3)"/><path d="M166.55,277.43v27.29H58.85V277.43a14.56,14.56,0,0,1,14.57-14.55H152A14.56,14.56,0,0,1,166.55,277.43Z" style="fill:#08a0ff"/><path d="M166.55,304.72V356A14.56,14.56,0,0,1,152,370.58H73.42A14.57,14.57,0,0,1,58.85,356V304.72Z" style="fill:#fff"/><path d="M73.42,373.58A17.59,17.59,0,0,1,55.85,356V277.43a17.58,17.58,0,0,1,17.57-17.55H152a17.57,17.57,0,0,1,17.56,17.55V356A17.59,17.59,0,0,1,152,373.58Z" style="fill:none;stroke:#6dcdfc;stroke-miterlimit:10"/><circle cx="112.7" cy="316.73" r="23.66" style="fill:#2088ef"/><circle cx="112.7" cy="316.73" r="11.63" style="fill:#a0d2ff"/></g></g></svg>